<?xml version="1.0" encoding="UTF-8" standalone="no"?>
<!-- Created with Inkscape (http://www.inkscape.org/) -->

<svg
   version="1.1"
   id="svg2"
   width="4400"
   height="2666.6667"
   viewBox="0 0 4400 2666.6667"
   sodipodi:docname="animation.eps"
   xmlns:inkscape="http://www.inkscape.org/namespaces/inkscape"
   xmlns:sodipodi="http://sodipodi.sourceforge.net/DTD/sodipodi-0.dtd"
   xmlns="http://www.w3.org/2000/svg"
   xmlns:svg="http://www.w3.org/2000/svg">
  <defs
     id="defs6" />
  <sodipodi:namedview
     id="namedview4"
     pagecolor="#ffffff"
     bordercolor="#000000"
     borderopacity="0.25"
     inkscape:showpageshadow="2"
     inkscape:pageopacity="0.0"
     inkscape:pagecheckerboard="0"
     inkscape:deskcolor="#d1d1d1" />
  <g
     id="g8"
     inkscape:groupmode="layer"
     inkscape:label="ink_ext_XXXXXX"
     transform="matrix(1.3333333,0,0,-1.3333333,0,2666.6667)">
    <g
       id="g10"
       transform="scale(0.1)">
      <path
         d="M 33000,0 H 0 V 20000 H 33000 V 0"
         style="fill:#d9e8ff;fill-opacity:1;fill-rule:nonzero;stroke:none"
         id="path12" />
      <path
         d="M 33000,7996.1 V 0 H 0 v 7996.1 h 33000"
         style="fill:#9ab1e8;fill-opacity:1;fill-rule:nonzero;stroke:none"
         id="path14" />
      <path
         d="m 25439.6,6417.9 c 119.1,-13.5 231.3,-19.4 335.8,-17.8 293.8,4.8 519,74.2 618.1,190.4 50.1,58.9 61.2,125.3 30.3,182.2 -40.2,73.9 -166.2,149.8 -389.3,120.7 -284.6,-37.3 -478.8,-162.4 -561.4,-362 -14.8,-35.8 -26,-73.8 -33.5,-113.5 z m 1587.8,-1442.4 c -9.9,0.2 -245.6,4.5 -534.3,73 -268.5,63.6 -633.1,197.3 -845.1,472.8 -207,269.1 -309.5,577.2 -287.1,835.9 -318.3,42.9 -682.7,136.2 -1088.9,279 -664.5,233.7 -1369.5,291.8 -1991.4,343.1 -654.2,53.9 -1219.1,100.4 -1639.3,321.9 -468.7,247 -687,683.7 -687,1374.2 h 70 c 0,-661.7 206.4,-1078.7 649.6,-1312.3 407.6,-214.8 965.9,-260.8 1612.4,-314.1 626.2,-51.6 1335.9,-110.1 2008.9,-346.7 401.9,-141.4 761.7,-233.6 1074.9,-275.8 8.4,46.1 21.2,90.2 38.3,131.7 64.7,156.2 224.2,353.2 617.1,404.6 257.9,33.7 406.6,-58.8 459.8,-156.7 44.8,-82.5 30.4,-180 -38.6,-261 -65.8,-77.3 -240.4,-208 -670.1,-214.9 -108,-1.8 -223.7,4.4 -346.5,18.4 -20.4,-240.4 77.3,-529.8 273.4,-784.6 383.2,-498 1315.6,-518.3 1324.9,-518.5 l -1,-70"
         style="fill:#1d3f70;fill-opacity:1;fill-rule:nonzero;stroke:none"
         id="path16" />
      <path
         d="m 25697.2,4343.7 2027.2,1435.4 4198.9,-674.7 -1850.1,-1463.9 -4376,703.2"
         style="fill:#234270;fill-opacity:1;fill-rule:nonzero;stroke:none"
         id="path18" />
      <path
         d="m 30018.3,3877 -3742.1,601.2 1503.2,1064.5 3629,-588.6 L 30018.3,3877"
         style="fill:#b8d2ff;fill-opacity:1;fill-rule:nonzero;stroke:none"
         id="path20" />
      <path
         d="m 25697.2,4343.7 v -172.9 l 4376,-703.2 v 172.9 l -4376,703.2"
         style="fill:#163260;fill-opacity:1;fill-rule:nonzero;stroke:none"
         id="path22" />
      <path
         d="M 31923.3,5104.4 V 4910.9 L 30073.2,3467.6 v 172.9 l 1850.1,1463.9"
         style="fill:#163260;fill-opacity:1;fill-rule:nonzero;stroke:none"
         id="path24" />
      <path
         d="m 6453.17,13595.9 c -41.37,-2422.9 -3645.3,-2422.5 -3686.32,0 41.37,2422.8 3645.3,2422.4 3686.32,0"
         style="fill:#7689d6;fill-opacity:1;fill-rule:nonzero;stroke:none"
         id="path26" />
      <path
         d="m 6179.83,13595.9 c -35.24,-2063.6 -3104.7,-2063.2 -3139.64,0 35.24,2063.5 3104.7,2063.2 3139.64,0"
         style="fill:#a4c2fc;fill-opacity:1;fill-rule:nonzero;stroke:none"
         id="path28" />
      <path
         d="m 4610.04,13518.5 c -2.24,-55.3 -585.35,561.3 -594.56,562.4 -30.22,30.3 -30.22,79.3 0,109.5 30.2,30.2 79.22,30.2 109.42,0 l 407.71,-407.7 v 951.2 c 0,42.8 34.66,77.4 77.4,77.4 42.74,0 77.4,-34.6 77.4,-77.4 v -1138 c 0.76,-41.8 -35.76,-78.1 -77.37,-77.4"
         style="fill:#7689d6;fill-opacity:1;fill-rule:nonzero;stroke:none"
         id="path30" />
      <path
         d="M 24898.9,3217 H 8221.6 v 368.1 H 24898.9 V 3217"
         style="fill:#17426d;fill-opacity:1;fill-rule:nonzero;stroke:none"
         id="path32" />
      <path
         d="M 24898.9,3585.1 H 8221.6 L 9567.44,6436 H 23553.1 l 1345.8,-2850.9"
         style="fill:#255084;fill-opacity:1;fill-rule:nonzero;stroke:none"
         id="path34" />
      <path
         d="M 23353.1,6170.2 H 9763.53 c -11.04,0 -20,8.9 -20,20 0,11 8.96,20 20,20 H 23353.1 c 11,0 20,-9 20,-20 0,-11.1 -9,-20 -20,-20"
         style="fill:#17426d;fill-opacity:1;fill-rule:nonzero;stroke:none"
         id="path36" />
      <path
         d="M 23508.6,5774 H 9602.76 c -11.04,0 -20,9 -20,20 0,11.1 8.96,20 20,20 H 23508.6 c 11,0 20,-8.9 20,-20 0,-11 -9,-20 -20,-20"
         style="fill:#17426d;fill-opacity:1;fill-rule:nonzero;stroke:none"
         id="path38" />
      <path
         d="M 23747.5,5305.6 H 9398.51 c -11.04,0 -20,8.9 -20,20 0,11 8.96,20 20,20 H 23747.5 c 11,0 20,-9 20,-20 0,-11.1 -9,-20 -20,-20"
         style="fill:#17426d;fill-opacity:1;fill-rule:nonzero;stroke:none"
         id="path40" />
      <path
         d="M 24227.5,4152.5 H 8908.3 c -11.05,0 -20,9 -20,20 0,11 8.95,20 20,20 h 15319.2 c 11,0 20,-9 20,-20 0,-11 -9,-20 -20,-20"
         style="fill:#17426d;fill-opacity:1;fill-rule:nonzero;stroke:none"
         id="path42" />
      <path
         d="M 23961.9,4769.9 H 9153.95 c -11.05,0 -20,8.9 -20,20 0,11 8.95,20 20,20 H 23961.9 c 11.1,0 20,-9 20,-20 0,-11.1 -8.9,-20 -20,-20"
         style="fill:#17426d;fill-opacity:1;fill-rule:nonzero;stroke:none"
         id="path44" />
      <path
         d="m 29272.3,9445 h -664.5 c -1874.3,6879.8 2598.1,5473.4 664.5,0"
         style="fill:#8a9edd;fill-opacity:1;fill-rule:nonzero;stroke:none"
         id="path46" />
      <path
         d="m 29272.3,9445 c 0,0 -497.5,-117.9 -477.3,0 514.8,3001.7 28.3,4646.1 28.3,4646.1 1810.1,121.8 449,-4646.1 449,-4646.1"
         style="fill:#3a72aa;fill-opacity:1;fill-rule:nonzero;stroke:none"
         id="path48" />
      <path
         d="M 31118.9,12446.9 C 31018,11341.7 30317.5,10352.9 29747,9445.1 l -745.8,0.1 c 67.4,1046.7 236.4,2181.7 816.8,3083.3 270.3,647.4 1302.5,805.2 1300.9,-81.6"
         style="fill:#7689d6;fill-opacity:1;fill-rule:nonzero;stroke:none"
         id="path50" />
      <path
         d="m 31118.9,12446.9 c 0,-40.8 -14.3,-127.1 -14.3,-127.1 -539.9,86.3 -857.8,346.1 -1027.8,550.1 0,0 46.4,40.6 107,74.5 155.5,-186.2 441.1,-417 935.1,-497.5"
         style="fill:#8a9edd;fill-opacity:1;fill-rule:nonzero;stroke:none"
         id="path52" />
      <path
         d="m 30996.3,11811.4 c -12.5,-39.7 -23.3,-82.3 -37.9,-123.1 -771.7,94 -1107.8,536.4 -1215.5,719.4 23.5,40.7 49,81 75.1,120.8 71.9,-142.3 411.9,-633.7 1178.3,-717.1"
         style="fill:#8a9edd;fill-opacity:1;fill-rule:nonzero;stroke:none"
         id="path54" />
      <path
         d="m 30798.9,11269.3 c -17.7,-39.7 -35.7,-80.8 -53.9,-120.6 -733.9,33.5 -1133,386 -1308.3,617.7 17.7,47.1 36,94.2 55.8,140.2 143.2,-219.9 581.2,-611.2 1306.4,-637.3"
         style="fill:#8a9edd;fill-opacity:1;fill-rule:nonzero;stroke:none"
         id="path56" />
      <path
         d="m 30459.9,10597.9 c -21.9,-39.7 -47.2,-80.5 -68.6,-119.2 -609.7,45 -978.8,300.6 -1182.8,524.9 0,0 16.3,87 35.7,148.8 223.2,-227.8 574.6,-513.2 1215.7,-554.5"
         style="fill:#8a9edd;fill-opacity:1;fill-rule:nonzero;stroke:none"
         id="path58" />
      <path
         d="m 30060,9938 c -25,-39.7 -49.2,-77.4 -73.7,-116.1 -454.9,74.3 -734.7,271.9 -908.4,442.4 7.3,53.3 14.6,106.7 23.4,160.6 158.6,-167.4 487.2,-417.3 958.7,-486.9"
         style="fill:#8a9edd;fill-opacity:1;fill-rule:nonzero;stroke:none"
         id="path60" />
      <path
         d="m 27933,9445 h -750.4 c -2361.1,3152.8 561.1,3760.9 750.4,0"
         style="fill:#7689d6;fill-opacity:1;fill-rule:nonzero;stroke:none"
         id="path62" />
      <path
         d="m 27933,9445 h -456.1 c -821.1,1147.8 -999.7,2090 -1000.6,2545.2 C 27547.6,12563 27935.4,9447.5 27933,9445"
         style="fill:#8a9edd;fill-opacity:1;fill-rule:nonzero;stroke:none"
         id="path64" />
      <path
         d="m 28730,9445.2 h -921.7 c 16.4,-39.3 -293.8,545.2 -411.6,829 h -0.5 c -256,603.6 -588.3,1417 -456.9,2068.6 73.2,514.9 806.5,717.9 1154.3,366.1 686.2,-609.6 664.6,-2630.4 636.4,-3263.7"
         style="fill:#3a72aa;fill-opacity:1;fill-rule:nonzero;stroke:none"
         id="path66" />
      <path
         d="m 28725.3,10544.6 c -4,64.4 -7.6,132.8 -13.6,198.8 l -507.5,-705.6 -202.9,809.7 574,861.5 c -13.1,59.6 -28.2,118.3 -44.5,175.8 l -571.2,-871.5 -241.6,964.4 462.2,641.8 c -27.1,32.4 -56.3,62.7 -86.6,89.4 l -415.7,-570.6 -177.5,733.6 c -44.3,-7.9 -88.1,-21.1 -128.3,-34.8 l 185.8,-741.2 -620.2,238.5 c -9.3,-37.4 -13.3,-78.1 -18.2,-119.2 l 676.5,-271.5 244.6,-976.5 -826.1,352.7 c 13.6,-53 29.3,-106.3 45.1,-159 l 819.6,-348 204.5,-816.4 -687.5,277.7 c 23.6,-59.2 50.7,-114.3 74.4,-167 l 651.7,-262.9 c 32.7,-55.5 69.2,-473.2 164.8,-462.9 152.2,-6.5 -51.8,434.2 -42.8,495.9 l 481,666.3 c 0,0.5 0,0.5 0,1"
         style="fill:#7689d6;fill-opacity:1;fill-rule:nonzero;stroke:none"
         id="path68" />
      <path
         d="M 29752.6,9445.1 V 6836 h -2577.8 v 2609.1 h 2577.8"
         style="fill:#eb5648;fill-opacity:1;fill-rule:nonzero;stroke:none"
         id="path70" />
      <path
         d="M 29752.6,9445.1 V 6836 h -2577.8 c 0,0 2577.8,40.3 2577.8,2609.1"
         style="fill:#ce3932;fill-opacity:1;fill-rule:nonzero;stroke:none"
         id="path72" />
      <path
         d="M 1998.61,6403.4 3751.8,7644.8 7303.26,7074.2 c 30.55,-4.9 40.68,-43.8 16.43,-63 L 5783.09,5795.3 1998.61,6403.4"
         style="fill:#eb5648;fill-opacity:1;fill-rule:nonzero;stroke:none"
         id="path74" />
      <path
         d="m 5320.39,6293.8 -1915.13,307.8 769.33,544.7 1857.28,-301.2 -711.48,-551.3"
         style="fill:#f4d4be;fill-opacity:1;fill-rule:nonzero;stroke:none"
         id="path76" />
      <path
         d="M 1998.61,6403.4 V 5915 l 3784.48,-615 v 495.3 l -3784.48,608.1"
         style="fill:#ce3932;fill-opacity:1;fill-rule:nonzero;stroke:none"
         id="path78" />
      <path
         d="m 7326.71,7016.7 21.28,-458.6 -1564.9,-1251.2 v 488.4 l 1543.62,1221.4"
         style="fill:#ffffff;fill-opacity:1;fill-rule:nonzero;stroke:none"
         id="path80" />
      <path
         d="m 3237.07,6631 c -7.08,0 -14.06,3.3 -18.46,9.5 -7.22,10.2 -4.81,24.3 5.39,31.5 l 769.32,544.7 c 10.17,7.3 24.27,4.8 31.49,-5.3 7.22,-10.2 4.81,-24.3 -5.37,-31.5 L 3250.1,6635.1 c -3.96,-2.8 -8.52,-4.1 -13.03,-4.1"
         style="fill:#f4d4be;fill-opacity:1;fill-rule:nonzero;stroke:none"
         id="path82" />
      <path
         d="m 5477.82,6231.1 c -6.67,0 -13.29,2.9 -17.74,8.6 -7.74,9.8 -6.07,24 3.73,31.7 l 706.45,558 c 9.76,7.7 24,6.1 31.73,-3.7 7.74,-9.8 6.07,-24 -3.73,-31.8 L 5491.81,6236 c -4.13,-3.3 -9.08,-4.9 -13.99,-4.9"
         style="fill:#f4d4be;fill-opacity:1;fill-rule:nonzero;stroke:none"
         id="path84" />
      <path
         d="m 5783.12,5301.2 c -8.38,0 -16.68,3.7 -22.25,10.8 -9.63,12.3 -7.49,30 4.78,39.7 l 1564.89,1228.6 c 12.27,9.6 30.03,7.5 39.67,-4.8 9.63,-12.2 7.49,-30 -4.78,-39.6 L 5800.54,5307.2 c -5.17,-4 -11.32,-6 -17.42,-6"
         style="fill:#ce3932;fill-opacity:1;fill-rule:nonzero;stroke:none"
         id="path86" />
      <path
         d="M 6160.06,1900.8 H 4750.37 L 4482.34,4209.3 H 6428.08 L 6160.06,1900.8"
         style="fill:#1d3f70;fill-opacity:1;fill-rule:nonzero;stroke:none"
         id="path88" />
      <path
         d="M 6438.47,3861.7 H 4471.95 c -102.2,0 -168.61,107.7 -122.74,199 l 83.18,165.7 c 30.62,61 93.03,99.5 161.28,99.5 h 1723.08 c 68.25,0 130.66,-38.5 161.29,-99.5 l 83.18,-165.7 c 45.86,-91.3 -20.54,-199 -122.75,-199"
         style="fill:#f49f9f;fill-opacity:1;fill-rule:nonzero;stroke:none"
         id="path90" />
      <path
         d="M 6361.64,4301.2 H 4548.79 l 73.52,97.4 c 64.02,84.8 164.11,134.6 270.37,134.6 h 1125.07 c 106.25,0 206.35,-49.8 270.36,-134.6 l 73.53,-97.4"
         style="fill:#f9c0c0;fill-opacity:1;fill-rule:nonzero;stroke:none"
         id="path92" />
      <path
         d="M 6219.59,2421.3 H 4683.78 c -31.14,0 -57.33,23.3 -60.9,54.2 l -95.73,829.4 c -4.2,36.4 24.26,68.3 60.9,68.3 h 1727.27 c 36.64,0 65.1,-31.9 60.9,-68.3 l -95.73,-829.4 c -3.57,-30.9 -29.76,-54.2 -60.9,-54.2"
         style="fill:#f49f9f;fill-opacity:1;fill-rule:nonzero;stroke:none"
         id="path94" />
      <path
         d="m 17532.9,6928.1 h -2204 v 3771.8 h 2204 V 6928.1"
         style="fill:#255084;fill-opacity:1;fill-rule:nonzero;stroke:none"
         id="path96" />
      <path
         d="m 18531.1,6878.6 h -4200.5 c -215.2,0 -389.6,174.4 -389.6,389.6 v 0 c 0,215.2 174.4,389.6 389.6,389.6 h 4200.5 c 215.2,0 389.6,-174.4 389.6,-389.6 v 0 c 0,-215.2 -174.4,-389.6 -389.6,-389.6"
         style="fill:#255084;fill-opacity:1;fill-rule:nonzero;stroke:none"
         id="path98" />
      <path
         d="m 8409.4,8550.5 v 9500.8 H 24452.3 V 8550.5 H 8409.4"
         style="fill:#255084;fill-opacity:1;fill-rule:nonzero;stroke:none"
         id="path100" />
      <path
         d="M 23892.5,9073.6 H 8969.26 v 8454.6 H 23892.5 V 9073.6"
         style="fill:#b8d2ff;fill-opacity:1;fill-rule:nonzero;stroke:none"
         id="path102" />
      <path
         d="M 23513.2,17203.6 V 9398.2 H 9348.52 v 7805.4 H 23513.2"
         style="fill:#ffffff;fill-opacity:1;fill-rule:nonzero;stroke:none"
         id="path104" />
      <path
         d="m 23139.6,16828.4 v -5102.9 h -7716.8 v 5102.9 h 7716.8"
         style="fill:#b0c7f5;fill-opacity:1;fill-rule:nonzero;stroke:none"
         id="path106" />
      <path
         d="m 23139.6,11123.4 h -7716.8 v 644.5 h 7716.8 v -644.5"
         style="fill:#255084;fill-opacity:1;fill-rule:nonzero;stroke:none"
         id="path108" />
      <path
         d="m 22692.1,11401.2 h -2109 c -24.7,0 -44.7,19.9 -44.7,44.4 0,24.6 20,44.5 44.7,44.5 h 2109 c 24.7,0 44.8,-19.9 44.8,-44.5 0,-24.5 -20.1,-44.4 -44.8,-44.4"
         style="fill:#bfd2f9;fill-opacity:1;fill-rule:nonzero;stroke:none"
         id="path110" />
      <path
         d="m 20583.1,11401.2 h -4444.5 c -24.7,0 -44.7,19.9 -44.7,44.4 0,24.6 20,44.5 44.7,44.5 h 4444.5 c 24.7,0 44.8,-19.9 44.8,-44.5 0,-24.5 -20.1,-44.4 -44.8,-44.4"
         style="fill:#eb5648;fill-opacity:1;fill-rule:nonzero;stroke:none"
         id="path112" />
      <path
         d="m 20726.4,11445.6 c 0,-78.6 -64.1,-142.3 -143.3,-142.3 -79.1,0 -143.2,63.7 -143.2,142.3 0,78.6 64.1,142.3 143.2,142.3 79.2,0 143.3,-63.7 143.3,-142.3"
         style="fill:#677cc1;fill-opacity:1;fill-rule:nonzero;stroke:none"
         id="path114" />
      <path
         d="m 15691.2,11256.8 c -24.7,0 -44.7,19.8 -44.7,44.4 v 288.9 c 0,24.5 20,44.4 44.7,44.4 24.7,0 44.8,-19.9 44.8,-44.4 v -288.9 c 0,-24.6 -20.1,-44.4 -44.8,-44.4"
         style="fill:#bfd2f9;fill-opacity:1;fill-rule:nonzero;stroke:none"
         id="path116" />
      <path
         d="m 15852.6,11256.8 c -24.7,0 -44.7,19.8 -44.7,44.4 v 288.9 c 0,24.5 20,44.4 44.7,44.4 24.7,0 44.8,-19.9 44.8,-44.4 v -288.9 c 0,-24.6 -20.1,-44.4 -44.8,-44.4"
         style="fill:#bfd2f9;fill-opacity:1;fill-rule:nonzero;stroke:none"
         id="path118" />
      <path
         d="m 23139.6,11773.9 h -7727.3 v 5058.4 h 7727.3 v -5058.4"
         style="fill:#cce6ff;fill-opacity:1;fill-rule:nonzero;stroke:none"
         id="path120" />
      <path
         d="m 19746.7,15531.8 c 0,-238.6 -193.4,-432 -431.9,-432 -238.6,0 -432,193.4 -432,432 0,238.6 193.4,432 432,432 238.5,0 431.9,-193.4 431.9,-432"
         style="fill:#fbb03b;fill-opacity:1;fill-rule:nonzero;stroke:none"
         id="path122" />
      <path
         d="m 17876.1,13058.8 c 0,0 2592.8,908.9 5263.5,362 v -1646.9 h -5479.8 l 216.3,1284.9"
         style="fill:#9ab1e8;fill-opacity:1;fill-rule:nonzero;stroke:none"
         id="path124" />
      <path
         d="m 17876.1,13058.8 c 0,0 2318.7,149 3977.9,-1290.9 l -1344.7,6 -2633.2,1284.9"
         style="fill:#7689d6;fill-opacity:1;fill-rule:nonzero;stroke:none"
         id="path126" />
      <path
         d="m 15412.3,13420.8 c 0,0 3431.7,-86.9 5097,-1646.9 h -5097 v 1646.9"
         style="fill:#abc1ef;fill-opacity:1;fill-rule:nonzero;stroke:none"
         id="path128" />
      <path
         d="m 22510.7,14991.8 c 62.2,237.6 -149.5,351.7 -244.5,413.9 -145.3,95 -222.7,192.7 -278.1,413.7 -103.1,411.5 -500.2,371.3 -518,-210.9 -13.4,-436.2 -392.4,-412.7 -322.9,-817.5 70.7,-270 -158.5,-283.4 -105.2,-530.2 44.5,-206.3 468.4,-369.7 731.3,-369.7 501.3,0 864.4,159.2 896.7,408.9 40.2,309.9 -230,421.8 -159.3,691.8"
         style="fill:#7689d6;fill-opacity:1;fill-rule:nonzero;stroke:none"
         id="path130" />
      <path
         d="m 22013.9,15137.3 c -9.8,9.8 -25.8,9.8 -35.7,0 l -162.6,-162.8 v 381.5 c 0,14 -11.4,25.3 -25.3,25.3 -14,0 -25.3,-11.3 -25.3,-25.3 v -938.6 l -125,125 c -9.8,9.9 -25.8,9.9 -35.7,0 -9.9,-9.9 -9.9,-25.9 0,-35.7 l 160.7,-160.8 v -1118.3 c 0,-13.9 11.3,-25.3 25.3,-25.3 13.9,0 25.3,11.4 25.3,25.3 V 14903 l 198.3,198.5 c 9.9,9.9 9.9,25.9 0,35.8"
         style="fill:#3b679b;fill-opacity:1;fill-rule:nonzero;stroke:none"
         id="path132" />
      <path
         d="M 14942.5,13140.4 H 9763.54 V 9645.3 h 5178.96 v 3495.1"
         style="fill:#b0c7f5;fill-opacity:1;fill-rule:nonzero;stroke:none"
         id="path134" />
      <path
         d="m 14942.5,13637 h -4541.2 v -243.6 h 4541.2 v 243.6"
         style="fill:#b0c7f5;fill-opacity:1;fill-rule:nonzero;stroke:none"
         id="path136" />
      <path
         d="m 14642.5,12787.5 h -3967.2 v -243.7 h 3967.2 v 243.7"
         style="fill:#ffffff;fill-opacity:1;fill-rule:nonzero;stroke:none"
         id="path138" />
      <path
         d="m 11905.7,12787.5 h -1230.4 v -243.7 h 1230.4 v 243.7"
         style="fill:#677cc1;fill-opacity:1;fill-rule:nonzero;stroke:none"
         id="path140" />
      <path
         d="m 14642.5,12150.3 h -3967.2 v -243.6 h 3967.2 v 243.6"
         style="fill:#ffffff;fill-opacity:1;fill-rule:nonzero;stroke:none"
         id="path142" />
      <path
         d="m 13399.4,12150.3 h -2724.1 v -243.6 h 2724.1 v 243.6"
         style="fill:#677cc1;fill-opacity:1;fill-rule:nonzero;stroke:none"
         id="path144" />
      <path
         d="m 14642.5,11523 h -3967.2 v -243.6 h 3967.2 v 243.6"
         style="fill:#677cc1;fill-opacity:1;fill-rule:nonzero;stroke:none"
         id="path146" />
      <path
         d="m 14642.5,10891.2 h -3967.2 v -243.7 h 3967.2 v 243.7"
         style="fill:#ffffff;fill-opacity:1;fill-rule:nonzero;stroke:none"
         id="path148" />
      <path
         d="m 11109.1,10891.2 h -433.8 v -243.7 h 433.8 v 243.7"
         style="fill:#677cc1;fill-opacity:1;fill-rule:nonzero;stroke:none"
         id="path150" />
      <path
         d="M 14642.5,10261.6 H 10675.3 V 10018 h 3967.2 v 243.6"
         style="fill:#ffffff;fill-opacity:1;fill-rule:nonzero;stroke:none"
         id="path152" />
      <path
         d="M 14012.1,10261.6 H 10675.3 V 10018 h 3336.8 v 243.6"
         style="fill:#677cc1;fill-opacity:1;fill-rule:nonzero;stroke:none"
         id="path154" />
      <path
         d="m 14942.5,15767.2 h -4541.2 v -243.6 h 4541.2 v 243.6"
         style="fill:#b0c7f5;fill-opacity:1;fill-rule:nonzero;stroke:none"
         id="path156" />
      <path
         d="M 14942.5,15234.6 H 10401.3 V 14991 h 4541.2 v 243.6"
         style="fill:#b0c7f5;fill-opacity:1;fill-rule:nonzero;stroke:none"
         id="path158" />
      <path
         d="m 14942.5,14169.6 h -4541.2 v -243.7 h 4541.2 v 243.7"
         style="fill:#b0c7f5;fill-opacity:1;fill-rule:nonzero;stroke:none"
         id="path160" />
      <path
         d="m 14942.5,14702.1 h -4541.2 v -243.6 h 4541.2 v 243.6"
         style="fill:#b0c7f5;fill-opacity:1;fill-rule:nonzero;stroke:none"
         id="path162" />
      <path
         d="m 10541.3,16054.5 h -777.76 v 777.8 h 777.76 v -777.8"
         style="fill:#677cc1;fill-opacity:1;fill-rule:nonzero;stroke:none"
         id="path164" />
      <path
         d="m 10401.3,9945.3 h -388.8 v 388.9 h 388.8 v -388.9"
         style="fill:#677cc1;fill-opacity:1;fill-rule:nonzero;stroke:none"
         id="path166" />
      <path
         d="m 10401.3,10574.9 h -388.8 v 388.9 h 388.8 v -388.9"
         style="fill:#677cc1;fill-opacity:1;fill-rule:nonzero;stroke:none"
         id="path168" />
      <path
         d="m 10401.3,11204.5 h -388.8 v 388.9 h 388.8 v -388.9"
         style="fill:#677cc1;fill-opacity:1;fill-rule:nonzero;stroke:none"
         id="path170" />
      <path
         d="m 10401.3,11834.1 h -388.8 v 388.8 h 388.8 v -388.8"
         style="fill:#677cc1;fill-opacity:1;fill-rule:nonzero;stroke:none"
         id="path172" />
      <path
         d="m 10401.3,12471.2 h -388.8 v 388.9 h 388.8 v -388.9"
         style="fill:#677cc1;fill-opacity:1;fill-rule:nonzero;stroke:none"
         id="path174" />
      <path
         d="m 12008.3,16054.5 h -777.7 v 777.8 h 777.7 v -777.8"
         style="fill:#b0c7f5;fill-opacity:1;fill-rule:nonzero;stroke:none"
         id="path176" />
      <path
         d="m 13475.4,16054.5 h -777.7 v 777.8 h 777.7 v -777.8"
         style="fill:#677cc1;fill-opacity:1;fill-rule:nonzero;stroke:none"
         id="path178" />
      <path
         d="m 14942.5,16054.5 h -777.7 v 777.8 h 777.7 v -777.8"
         style="fill:#b0c7f5;fill-opacity:1;fill-rule:nonzero;stroke:none"
         id="path180" />
      <path
         d="m 23139.6,9645.3 h -7716.8 v 225.6 h 7716.8 v -225.6"
         style="fill:#b0c7f5;fill-opacity:1;fill-rule:nonzero;stroke:none"
         id="path182" />
      <path
         d="m 23139.6,10699.9 h -7716.8 v 225.5 h 7716.8 v -225.5"
         style="fill:#b0c7f5;fill-opacity:1;fill-rule:nonzero;stroke:none"
         id="path184" />
      <path
         d="m 23139.6,9996.9 h -7716.8 v 225.5 h 7716.8 v -225.5"
         style="fill:#b0c7f5;fill-opacity:1;fill-rule:nonzero;stroke:none"
         id="path186" />
      <path
         d="m 23139.6,10348.4 h -7716.8 v 225.5 h 7716.8 v -225.5"
         style="fill:#b0c7f5;fill-opacity:1;fill-rule:nonzero;stroke:none"
         id="path188" />
      <path
         d="m 22041.9,10699.9 h -2527.6 v 225.5 h 2527.6 v -225.5"
         style="fill:#eb5648;fill-opacity:1;fill-rule:nonzero;stroke:none"
         id="path190" />
      <path
         d="M 22697.8,10348.4 H 18379 v 225.5 h 4318.8 v -225.5"
         style="fill:#eb5648;fill-opacity:1;fill-rule:nonzero;stroke:none"
         id="path192" />
      <path
         d="m 20175.3,9645.3 h -3347 v 225.6 h 3347 v -225.6"
         style="fill:#eb5648;fill-opacity:1;fill-rule:nonzero;stroke:none"
         id="path194" />
      <path
         d="m 17666.1,9996.9 h -1974.9 v 225.5 h 1974.9 v -225.5"
         style="fill:#eb5648;fill-opacity:1;fill-rule:nonzero;stroke:none"
         id="path196" />
      <path
         d="m 21702.9,15696.8 v -34 c -470.3,11.4 -798.5,-164.1 -993,-316.1 -156.9,-122.7 -253.7,-249.6 -295.8,-311.5 h -59.3 v -86.8 h 86.8 v 86.8 h -3.2 c 44.6,63.8 137.6,181.5 283.8,295.7 192,150 516,323.4 980.7,311.9 v -32.8 h 86.8 v 86.8 h -86.8"
         style="fill:#3b679b;fill-opacity:1;fill-rule:nonzero;stroke:none"
         id="path198" />
      <path
         d="m 16341.6,14513.9 c -62.2,237.6 149.5,351.8 244.5,413.9 145.3,95 222.7,192.8 278.1,413.7 103.1,411.5 500.2,371.3 518,-210.8 13.4,-436.3 392.4,-412.8 322.9,-817.6 -70.7,-270 158.5,-283.4 105.2,-530.2 -44.5,-206.3 -468.4,-369.7 -731.3,-369.7 -501.3,0 -864.4,159.3 -896.8,409 -40.1,309.8 230.1,421.8 159.4,691.7"
         style="fill:#7689d6;fill-opacity:1;fill-rule:nonzero;stroke:none"
         id="path200" />
      <path
         d="m 16838.3,14659.4 c 9.9,9.9 25.9,9.9 35.8,0 l 162.6,-162.8 v 381.5 c 0,14 11.3,25.3 25.3,25.3 14,0 25.3,-11.3 25.3,-25.3 v -938.6 l 125,125 c 9.8,9.9 25.8,9.9 35.7,0 9.9,-9.8 9.9,-25.8 0,-35.7 l -160.7,-160.8 v -1118.3 c 0,-13.9 -11.3,-25.2 -25.3,-25.2 -14,0 -25.3,11.3 -25.3,25.2 v 1675.4 l -198.4,198.5 c -9.8,9.9 -9.8,25.9 0,35.8"
         style="fill:#3b679b;fill-opacity:1;fill-rule:nonzero;stroke:none"
         id="path202" />
      <path
         d="m 18438.2,14557.3 c -42.1,61.9 -138.9,188.9 -295.8,311.5 -194.5,152 -522.9,327.6 -993,316.2 v 33.9 h -86.8 v -86.7 h 86.8 v 32.8 c 464.3,11.4 788.1,-161.6 980,-311.4 146.4,-114.3 239.7,-232.3 284.5,-296.3 h -3.2 v -86.8 h 86.8 v 86.8 h -59.3"
         style="fill:#3b679b;fill-opacity:1;fill-rule:nonzero;stroke:none"
         id="path204" />
      <path
         d="m 19314.8,16039.9 c -13.8,0 -25,11.2 -25,25 v 362.5 c 0,13.9 11.2,25 25,25 13.8,0 25,-11.1 25,-25 v -362.5 c 0,-13.8 -11.2,-25 -25,-25"
         style="fill:#fbb03b;fill-opacity:1;fill-rule:nonzero;stroke:none"
         id="path206" />
      <path
         d="m 19314.8,14614.9 c -13.8,0 -25,11.2 -25,25 v 362.5 c 0,13.9 11.2,25 25,25 13.8,0 25,-11.1 25,-25 v -362.5 c 0,-13.8 -11.2,-25 -25,-25"
         style="fill:#fbb03b;fill-opacity:1;fill-rule:nonzero;stroke:none"
         id="path208" />
      <path
         d="m 20206.2,15506.8 h -362.6 c -13.8,0 -25,11.2 -25,25 0,13.8 11.2,25 25,25 h 362.6 c 13.8,0 25,-11.2 25,-25 0,-13.8 -11.2,-25 -25,-25"
         style="fill:#fbb03b;fill-opacity:1;fill-rule:nonzero;stroke:none"
         id="path210" />
      <path
         d="m 18784,15506.8 h -362.5 c -13.8,0 -25,11.2 -25,25 0,13.8 11.2,25 25,25 h 362.5 c 13.9,0 25,-11.2 25,-25 0,-13.8 -11.1,-25 -25,-25"
         style="fill:#fbb03b;fill-opacity:1;fill-rule:nonzero;stroke:none"
         id="path212" />
      <path
         d="m 18938.6,15883 c -6.4,0 -12.8,2.4 -17.7,7.3 l -256.3,256.4 c -9.8,9.7 -9.8,25.6 0,35.3 9.7,9.8 25.5,9.8 35.3,0 l 256.4,-256.3 c 9.7,-9.8 9.7,-25.6 0,-35.4 -4.9,-4.9 -11.3,-7.3 -17.7,-7.3"
         style="fill:#fbb03b;fill-opacity:1;fill-rule:nonzero;stroke:none"
         id="path214" />
      <path
         d="m 19689.9,15883 c -6.4,0 -12.8,2.4 -17.6,7.3 -9.8,9.8 -9.8,25.6 0,35.4 l 256.3,256.3 c 9.8,9.8 25.6,9.8 35.4,0 9.7,-9.7 9.7,-25.6 0,-35.3 l -256.4,-256.4 c -4.9,-4.9 -11.3,-7.3 -17.7,-7.3"
         style="fill:#fbb03b;fill-opacity:1;fill-rule:nonzero;stroke:none"
         id="path216" />
      <path
         d="m 18682.2,14875.3 c -6.4,0 -12.8,2.4 -17.6,7.3 -9.8,9.8 -9.8,25.6 0,35.3 l 256.3,256.4 c 9.8,9.8 25.6,9.8 35.4,0 9.7,-9.7 9.7,-25.6 0,-35.3 l -256.4,-256.4 c -4.9,-4.9 -11.3,-7.3 -17.7,-7.3"
         style="fill:#fbb03b;fill-opacity:1;fill-rule:nonzero;stroke:none"
         id="path218" />
      <path
         d="m 19946.3,14875.3 c -6.4,0 -12.8,2.4 -17.7,7.3 l -256.3,256.4 c -9.8,9.7 -9.8,25.6 0,35.3 9.7,9.8 25.5,9.8 35.3,0 l 256.4,-256.4 c 9.7,-9.7 9.7,-25.5 0,-35.3 -4.9,-4.9 -11.3,-7.3 -17.7,-7.3"
         style="fill:#fbb03b;fill-opacity:1;fill-rule:nonzero;stroke:none"
         id="path220" />
      <path
         d="m 19490.8,15698.8 c -3.8,4 -10.1,4.2 -14.1,0.4 -4,-3.8 -4.2,-10.1 -0.4,-14.1 39.4,-41.6 61.1,-96 61.1,-153.3 0,-122.8 -99.9,-222.7 -222.6,-222.7 -122.8,0 -222.7,99.9 -222.7,222.7 0,67.9 31.3,131.7 83.4,173.6 l -6.5,-63.7 145.8,122.8 -189.7,18.7 46.9,-55.3 c -62.2,-45.4 -99.9,-118.3 -99.9,-196.1 0,-133.8 108.9,-242.7 242.7,-242.7 133.8,0 242.6,108.9 242.6,242.7 0,62.5 -23.6,121.8 -66.6,167"
         style="fill:#3b679b;fill-opacity:1;fill-rule:nonzero;stroke:none"
         id="path222" />
      <path
         d="m 18952.6,12771.7 c -62.3,0 -134.8,34.3 -153.4,43.6 -12.4,6.2 -17.3,21.3 -11.1,33.6 6.2,12.3 21.2,17.3 33.5,11.1 51.3,-25.7 139.2,-52.8 165.3,-29.3 5.5,5 5.6,10.7 -4.8,35.2 -7.6,18.1 -17.1,40.6 -1.9,60.1 14.8,19 43.4,22.5 105.7,13 13.6,-2.1 23,-14.9 20.9,-28.5 -2.1,-13.7 -14.8,-23 -28.5,-21 -29.5,4.6 -45.4,4.9 -53.6,4.4 1.1,-2.9 2.4,-6.1 3.5,-8.6 9.1,-21.4 25.9,-61.4 -7.9,-91.8 -17.7,-15.9 -41.8,-21.8 -67.7,-21.8"
         style="fill:#ffffff;fill-opacity:1;fill-rule:nonzero;stroke:none"
         id="path224" />
      <path
         d="m 19536.5,12542.7 c -70,0 -164.7,23 -233.2,58.3 -12.3,6.3 -17.1,21.4 -10.8,33.7 6.4,12.2 21.4,17 33.7,10.7 95.1,-49 212,-58.9 249.2,-49.7 -2.2,1.9 -5.2,4.3 -9.1,7 -54.9,38.5 -102.8,101.6 -78.1,149.4 25.8,49.8 113,48.4 259.2,-4.1 13,-4.7 19.7,-19 15.1,-32 -4.7,-13 -19,-19.7 -32,-15.1 -174.2,62.6 -197.7,28.5 -197.9,28.2 -5.3,-10.4 11.8,-50 62.4,-85.4 45.7,-32 39.2,-58.8 31.3,-71.9 -12.2,-20.3 -46.3,-29.1 -89.8,-29.1"
         style="fill:#ffffff;fill-opacity:1;fill-rule:nonzero;stroke:none"
         id="path226" />
      <path
         d="m 20050.4,12199.9 c -4.4,0 -8.8,1.2 -12.9,3.6 -34.3,20.7 -205,128.2 -197.4,214.3 1.9,20.9 13.8,30.8 20.7,34.8 28.7,16.5 70.7,-2.9 134.3,-32.2 67.6,-31.2 151.8,-70 206.6,-54.1 6.3,1.9 9.6,3.6 11.2,4.7 -4.7,17.1 -54.1,57.8 -81.1,80 -54.2,44.6 -87.4,73.4 -89.7,103.6 -0.8,11.2 2.7,21.5 10.2,29.8 45.2,50.2 241.4,-9.8 354.3,-50 13,-4.6 19.8,-18.9 15.1,-31.9 -4.6,-13 -18.9,-19.8 -31.9,-15.2 -129.5,46.1 -260.5,75 -294.9,65.8 10.7,-15.8 46.3,-45.1 68.6,-63.5 57.6,-47.4 107.3,-88.3 98.8,-129.7 -4,-19.7 -19.7,-33.7 -46.6,-41.6 -72.8,-21.2 -166.3,22 -241.5,56.7 -28.8,13.2 -66.8,30.8 -84,33.4 5.4,-42.8 104.3,-120.6 173.1,-162.1 11.9,-7.1 15.7,-22.5 8.5,-34.3 -4.7,-7.8 -12.9,-12.1 -21.4,-12.1"
         style="fill:#ffffff;fill-opacity:1;fill-rule:nonzero;stroke:none"
         id="path228" />
      <path
         d="m 20690.8,11915.7 v 0 z m -22.5,-55.9 c -111.9,0 -291,149.2 -329.9,182.8 -10.4,9 -11.6,24.8 -2.5,35.2 9,10.5 24.8,11.6 35.2,2.6 99.5,-85.9 263.3,-194.4 316.3,-167 1.2,0.6 1.9,1.1 2.5,1.5 -2.8,15.9 -47.2,57.4 -74,82.4 -70,65.4 -157.2,146.8 -96,213.8 64.1,70.2 163.2,-15.3 250.6,-90.7 47,-40.5 111,-96 136.6,-90.9 -3.9,21.4 -50.6,78.4 -76.4,109.9 -57.1,69.8 -89,110.8 -79.1,143.7 4.9,16.3 16.3,28.3 32.4,33.9 48.2,17 150,-27.7 302.4,-132.8 11.4,-7.8 14.2,-23.4 6.4,-34.8 -7.8,-11.3 -23.4,-14.2 -34.8,-6.4 -179.1,123.6 -247.4,133.2 -258.1,126.7 2.6,-17 44.3,-67.9 69.5,-98.6 61.3,-74.9 98.2,-122.7 85.6,-160.2 -3,-8.7 -11.6,-24.2 -35.9,-29.9 -49.7,-11.7 -110.8,40.7 -181.2,101.5 -66.7,57.5 -149.8,129.1 -181.1,94.9 -27.8,-30.5 39.3,-93.2 93.2,-143.5 53,-49.5 94.8,-88.6 89.6,-126.9 -1.6,-11.2 -7.9,-26.9 -29.2,-37.9 -12.3,-6.5 -26.6,-9.3 -42.1,-9.3"
         style="fill:#ffffff;fill-opacity:1;fill-rule:nonzero;stroke:none"
         id="path230" />
      <path
         d="m 10152.4,13320.8 h -388.86 v 388.9 h 388.86 v -388.9"
         style="fill:#677cc1;fill-opacity:1;fill-rule:nonzero;stroke:none"
         id="path232" />
      <path
         d="m 10079,13515.2 -222.11,128.2 V 13387 Z"
         style="fill:#b0c7f5;fill-opacity:1;fill-rule:nonzero;stroke:none"
         id="path234" />
      <path
         d="m 10152.4,13853.3 h -388.86 v 388.9 h 388.86 v -388.9"
         style="fill:#677cc1;fill-opacity:1;fill-rule:nonzero;stroke:none"
         id="path236" />
      <path
         d="m 10079,14047.8 -222.11,128.2 v -256.5 z"
         style="fill:#b0c7f5;fill-opacity:1;fill-rule:nonzero;stroke:none"
         id="path238" />
      <path
         d="m 10152.4,14385.9 h -388.86 v 388.8 h 388.86 v -388.8"
         style="fill:#677cc1;fill-opacity:1;fill-rule:nonzero;stroke:none"
         id="path240" />
      <path
         d="m 10079,14580.3 -222.11,128.2 v -256.4 z"
         style="fill:#b0c7f5;fill-opacity:1;fill-rule:nonzero;stroke:none"
         id="path242" />
      <path
         d="m 10152.4,15450.9 h -388.86 v 388.9 h 388.86 v -388.9"
         style="fill:#677cc1;fill-opacity:1;fill-rule:nonzero;stroke:none"
         id="path244" />
      <path
         d="m 10079,15645.4 -222.11,128.2 v -256.4 z"
         style="fill:#b0c7f5;fill-opacity:1;fill-rule:nonzero;stroke:none"
         id="path246" />
      <path
         d="m 10152.4,14918.4 h -388.86 v 388.9 h 388.86 v -388.9"
         style="fill:#677cc1;fill-opacity:1;fill-rule:nonzero;stroke:none"
         id="path248" />
      <path
         d="m 10079,15112.8 -222.11,128.2 v -256.4 z"
         style="fill:#b0c7f5;fill-opacity:1;fill-rule:nonzero;stroke:none"
         id="path250" />
      <path
         d="m 12161.3,15438 h 81.7 v 414.8 h -81.7 V 15438"
         style="fill:#677cc1;fill-opacity:1;fill-rule:nonzero;stroke:none"
         id="path252" />
      <path
         d="m 14086.4,13840.4 h 81.7 v 414.8 h -81.7 v -414.8"
         style="fill:#677cc1;fill-opacity:1;fill-rule:nonzero;stroke:none"
         id="path254" />
      <path
         d="m 12697.7,14905.4 h 81.7 v 414.8 h -81.7 v -414.8"
         style="fill:#677cc1;fill-opacity:1;fill-rule:nonzero;stroke:none"
         id="path256" />
      <path
         d="m 11905.7,13307.8 h 81.7 v 414.8 h -81.7 v -414.8"
         style="fill:#677cc1;fill-opacity:1;fill-rule:nonzero;stroke:none"
         id="path258" />
      <path
         d="m 11058.5,14372.9 h 81.7 v 414.8 h -81.7 v -414.8"
         style="fill:#677cc1;fill-opacity:1;fill-rule:nonzero;stroke:none"
         id="path260" />
      <path
         d="m 22951.3,3302.7 c -329.9,216.1 -617.7,498.1 -837.3,825.8 -25.7,43.5 -70.3,110.9 -92.2,156.1 -57,82.9 -95.9,213 16.8,269.8 101,55.4 182.5,-32.7 231.2,-112 236.1,-306.4 559.4,-546.1 908.7,-709.2 367.5,-125.5 88.4,-658.3 -227.2,-430.5"
         style="fill:#f69d85;fill-opacity:1;fill-rule:nonzero;stroke:none"
         id="path262" />
      <path
         d="m 22464.2,4220.7 c -68.1,404.4 -224.7,793.1 -432.5,1147.4 -106.2,181.1 82.3,308.5 206.1,153.6 171.6,-214.7 352,-531.2 445.4,-674.6 161.6,-254.4 172.4,-258.3 264.4,-546.4 97.2,-351.9 -461.8,-445 -483.4,-80"
         style="fill:#f69d85;fill-opacity:1;fill-rule:nonzero;stroke:none"
         id="path264" />
      <path
         d="m 23318.9,3982.3 c 76.2,670.8 -70.9,825.8 -158,1226.8 -44.6,205 135.7,252.6 236.9,82.8 79.7,-133.6 210.7,-474.6 258,-638.8 108,-374.4 145.1,-790.6 144.6,-1093.1 -14.7,-364.7 -570.2,68.4 -481.5,422.3"
         style="fill:#f69d85;fill-opacity:1;fill-rule:nonzero;stroke:none"
         id="path266" />
      <path
         d="m 23096.3,4069 c 31.3,408.9 -132.9,781.6 -249.3,1175.5 -59.5,201.4 142.9,278.7 229.7,100.4 74.8,-153.7 229.9,-562.7 313.4,-838 87.5,-288.4 61.4,-216.2 81.4,-518 9.6,-365 -442.2,-279.3 -375.2,80.1"
         style="fill:#f69d85;fill-opacity:1;fill-rule:nonzero;stroke:none"
         id="path268" />
      <path
         d="m 22858.3,4091.9 c -11,410 -181,687.1 -358.4,1184.3 -70.6,197.8 120.9,291.8 225.5,123.4 90.3,-145.2 223.1,-402.3 311.9,-626.6 110.9,-280.2 169.5,-383.4 220.4,-681.5 47.2,-362.1 -429.1,-364 -399.4,0.4"
         style="fill:#f69d85;fill-opacity:1;fill-rule:nonzero;stroke:none"
         id="path270" />
      <path
         d="m 22482.7,4086.4 226.2,-607 569.9,-2042.8 c 0,0 912.2,10 1391.1,488.4 0,0 -743.6,1457.9 -1093.6,2189.1 l -1093.6,-27.7"
         style="fill:#f69d85;fill-opacity:1;fill-rule:nonzero;stroke:none"
         id="path272" />
      <path
         d="m 25694.5,0 h -479.7 l -1763.8,1447.6 -227.3,186.6 -289.6,237.7 -336.6,276.3 86.8,922.5 16.6,176 18.3,195.5 c 0,0 5.9,5.5 17.6,15 37.8,30.6 136.3,102.5 286.5,157.6 73.3,26.9 159,49.8 255.9,61.9 29.4,3.6 59.8,6.3 91.3,7.8 h 0.1 c 127.2,6 270.9,-7.3 429.3,-52.4 4.4,-1.2 8.9,-2.5 13.3,-3.8 0,0 0.1,-0.1 0.3,-0.4 1.1,-1.3 4.8,-5.7 10.8,-13.1 33.5,-40.9 140.9,-173.3 288.4,-368.1 C 24659.5,2525.1 25758.4,947.5 25694.5,0"
         style="fill:#eb5648;fill-opacity:1;fill-rule:nonzero;stroke:none"
         id="path274" />
      <path
         d="m 10584.8,3302.7 c 330,216.1 617.7,498.1 837.3,825.8 25.7,43.5 70.3,110.9 92.2,156.1 57,82.9 95.9,213 -16.7,269.8 -101.1,55.4 -182.5,-32.7 -231.2,-112 -236.2,-306.4 -559.5,-546.1 -908.7,-709.2 -367.55,-125.5 -88.5,-658.3 227.1,-430.5"
         style="fill:#f69d85;fill-opacity:1;fill-rule:nonzero;stroke:none"
         id="path276" />
      <path
         d="m 11071.9,4220.7 c 68.1,404.4 224.7,793.1 432.5,1147.4 106.3,181.1 -82.3,308.5 -206.1,153.6 -171.6,-214.7 -352,-531.2 -445.4,-674.6 -161.6,-254.4 -172.3,-258.3 -264.3,-546.4 -97.3,-351.9 461.8,-445 483.3,-80"
         style="fill:#f69d85;fill-opacity:1;fill-rule:nonzero;stroke:none"
         id="path278" />
      <path
         d="m 10217.2,3982.3 c -76.2,670.8 70.9,825.8 158,1226.8 44.6,205 -135.6,252.6 -236.9,82.8 -79.6,-133.6 -210.63,-474.6 -258,-638.8 -107.95,-374.4 -145.09,-790.6 -144.59,-1093.1 14.69,-364.7 570.29,68.4 481.49,422.3"
         style="fill:#f69d85;fill-opacity:1;fill-rule:nonzero;stroke:none"
         id="path280" />
      <path
         d="m 10439.8,4069 c -31.3,408.9 132.9,781.6 249.3,1175.5 59.5,201.4 -142.9,278.7 -229.6,100.4 -74.8,-153.7 -230,-562.7 -313.5,-838 -87.4,-288.4 -61.4,-216.2 -81.3,-518 -9.6,-365 442.1,-279.3 375.1,80.1"
         style="fill:#f69d85;fill-opacity:1;fill-rule:nonzero;stroke:none"
         id="path282" />
      <path
         d="m 10784.9,4301.2 c 11,409.9 181,687.1 358.4,1184.3 70.6,197.8 -120.9,291.8 -225.5,123.4 -90.3,-145.2 -223.1,-402.3 -311.9,-626.6 -110.9,-280.2 -169.5,-383.4 -220.4,-681.5 -47.2,-362.1 429.1,-364 399.4,0.4"
         style="fill:#f69d85;fill-opacity:1;fill-rule:nonzero;stroke:none"
         id="path284" />
      <path
         d="m 11053.5,4086.4 -226.2,-607 -570,-2042.8 c 0,0 -912.16,10 -1391.09,488.4 0,0 743.59,1457.9 1093.63,2189.1 l 1093.66,-27.7"
         style="fill:#f69d85;fill-opacity:1;fill-rule:nonzero;stroke:none"
         id="path286" />
      <path
         d="M 10930.6,2148.2 10796.7,2066.9 8554.8,705.801 7392.46,0 c -233.74,1037.4 2308.64,3584.2 2308.64,3584.2 680.3,200 1126.1,-104.7 1126.1,-104.7 l 65.5,-843.2 37.9,-488.1"
         style="fill:#eb5648;fill-opacity:1;fill-rule:nonzero;stroke:none"
         id="path288" />
      <path
         d="m 22934.1,1871.9 -336.6,276.3 103.4,1098.5 c 0,0 1165.2,-915.2 1927.6,-1714 475.6,-498.4 -724.5,-60.6 -1694.4,339.2"
         style="fill:#ce3932;fill-opacity:1;fill-rule:nonzero;stroke:none"
         id="path290" />
      <path
         d="m 10892.7,2636.3 c -30.4,-181 -63,-374.5 -96,-569.4 -139.7,-825.4 -285.5,-1673.298 -295.6,-1676.599 -12.5,-4.199 -1247.15,59.601 -1946.3,315.5 -411.95,150.601 -638.05,367.899 -318.89,677.099 860.92,834 2591.29,2096.6 2591.29,2096.6 l 65.5,-843.2"
         style="fill:#ce3932;fill-opacity:1;fill-rule:nonzero;stroke:none"
         id="path292" />
      <path
         d="m 15768.7,5971.3 c 0,0 -39.7,-140.4 -110.4,-377.1 -128.7,-430 -360.3,-1177.7 -644.5,-1979.4 -43.2,-121.8 -87.6,-244.8 -133,-368.1 -443,-1202.5 -984.6,-2435.2 -1461.4,-2840.2 -18.2,-15.398 -36.3,-29.898 -54.3,-42.801 C 13226.6,263.801 13032.3,137.102 12797.1,0 H 7392.39 v 0.5 c 0,0.101563 0,0.101563 0,0.101563 C 7386.03,487.602 7737.78,1024.9 8235.89,1383 c 192.46,138.3 418.1,297.6 684.22,491.6 456.65,332.7 1032.42,767.3 1763.99,1372.1 33.6,27.8 67.6,55.9 101.8,84.5 16.5,13.6 33,27.4 49.6,41.3 93.5,78 189.5,158.8 288.1,242.3 183.4,155.7 375.5,321.2 576.8,497.3 1457.3,1274.8 2807,1675.7 3526.2,1801.6 330,57.8 527.3,57.7 541.3,57.6 0.5,0 0.8,0 0.8,0"
         style="fill:#eb5648;fill-opacity:1;fill-rule:nonzero;stroke:none"
         id="path294" />
      <path
         d="m 25675.7,0 h -5787.5 c -71.6,41.8984 -136.7,82.4023 -194.5,120.602 -31.5,21 -60.6,41.296 -87.6,60.699 C 19101.9,545.402 18523,1927.9 18062.9,3246.7 c -43.1,123.6 -85.2,246.6 -126,368.1 -268.1,797.2 -484.5,1532 -604.3,1953.2 -65.9,231.8 -102.7,368.7 -102.7,368.7 0,0 0.3,0 0.8,0 13.9,-0.2 212.5,-2.4 553.4,-67.4 708.3,-134.9 2030.6,-540.1 3583.6,-1757.2 222.9,-174.7 433.1,-340.3 631.6,-497.3 162.3,-128.3 316.9,-250.9 464,-368.1 75.6,-60.1 149.2,-118.8 221,-176 60.8,-48.4 120.2,-95.8 178.3,-142.3 l 0.1,-0.1 c 646.4,-516.4 1134.8,-910.8 1525.5,-1212.5 84.5,-65.3 164.4,-126.3 240.3,-183.1 71.2,-53.4 138.9,-103.2 203.7,-149.7 498.4,-358.2 850.2,-896 843.5,-1383"
         style="fill:#eb5648;fill-opacity:1;fill-rule:nonzero;stroke:none"
         id="path296" />
      <path
         d="m 13419.4,406.5 c -18.2,-15.398 -36.3,-29.898 -54.3,-42.801 C 13226.6,263.801 13032.3,137.102 12797.1,0 h -506.4 c 389.9,1250.6 994.1,2775.4 994.1,2775.4 v -0.6 l 134.6,-2368.3"
         style="fill:#ce3932;fill-opacity:1;fill-rule:nonzero;stroke:none"
         id="path298" />
      <path
         d="m 20437,0 h -548.8 c -71.6,41.8984 -136.7,82.4023 -194.5,120.602 L 19541.5,2889.8 c 0.1,-0.2 0.1,-0.3 0.1,-0.4 9.7,-29.1 524,-1578.6 895.4,-2889.4"
         style="fill:#ce3932;fill-opacity:1;fill-rule:nonzero;stroke:none"
         id="path300" />
      <path
         d="m 15848.6,7235.2 v -1539 h 1303.6 v 1539 h -1303.6"
         style="fill:#f99370;fill-opacity:1;fill-rule:nonzero;stroke:none"
         id="path302" />
      <path
         d="m 20098.1,0 h -7415.9 c 183.9,950.602 388,1915.6 602.6,2774.8 40.3,161.3 80.9,318.9 121.8,471.9 33.6,125.9 67.5,248.8 101.5,368.1 286.5,1005 584.7,1761.9 873,2007.2 244.9,125.9 538,217.3 858,278 169.7,32.3 347.1,55.8 528.8,71.3 0.2,0 0.4,0.1 0.8,0.1 0,0 0,0 0.1,0 26.5,2.3 53.1,4.3 79.8,6.3 4.1,0.3 8.2,0.5 12.3,0.8 h 0.1 c 409.4,28.6 838.2,17.2 1250.6,-27.8 13.5,-1.6 27.1,-3.1 40.6,-4.6 25.9,-3 51.8,-6.1 77.6,-9.3 0.2,-0.1 0.6,-0.1 0.9,-0.1 181.8,-23 359.7,-52.5 530.6,-87.9 0.1,0 0.1,0 0.1,0 359.9,-74.8 688.4,-176 956.4,-298.7 206.5,-289.7 432.1,-1004.8 657.3,-1935.3 29,-119.3 57.8,-242.2 86.7,-368.1 26.6,-116.4 53.2,-235.5 79.7,-356.9 0.1,-0.2 0.1,-0.3 0.1,-0.4 193.8,-886.2 383.5,-1894.599 556.5,-2889.4"
         style="fill:#eb5648;fill-opacity:1;fill-rule:nonzero;stroke:none"
         id="path304" />
      <path
         d="m 15831.1,5988.2 c 958.9,-316.1 1339.8,-0.8 1339.8,-0.8 l -3.7,0.8 -15,399.3 c 0,0 -386.2,-218.4 -1303.6,0 l -17.5,-399.3"
         style="fill:#103663;fill-opacity:1;fill-rule:nonzero;stroke:none"
         id="path306" />
      <path
         d="m 17166.8,6629.3 c -1122,-449.1 -2158.6,-183.1 -2719.3,394.2 -910.9,927.3 96.2,2029.1 127.5,3014.5 21.4,265.7 11.6,456.4 11.6,456.4 3801.3,-425.4 2781.1,-3848.6 2580.2,-3865.1"
         style="fill:#f99370;fill-opacity:1;fill-rule:nonzero;stroke:none"
         id="path308" />
      <path
         d="m 17229.8,6767.4 v -830.7 c 0,0 -618.9,-449.8 -1461,34.7 v 1286.2 l 1461,-490.2"
         style="fill:#f99370;fill-opacity:1;fill-rule:nonzero;stroke:none"
         id="path310" />
      <path
         d="m 16480.7,6916.1 c -196.9,24.7 -970.9,146.7 -1037.7,552.4 -66.7,406 -149.7,571 -149.7,571 l -399.1,676.4 c 98.2,622 -306.2,1300.6 -319,1321.5 -0.2,0.6 -0.2,0.6 -0.2,0.6 21.4,265.7 11.6,456.4 11.6,456.4 93.9,-15.3 185,-32 273.3,-50 l 637.9,-425.8 712.5,-715.9 c 0,0 466.9,-2411.1 270.4,-2386.6"
         style="fill:#e57d61;fill-opacity:1;fill-rule:nonzero;stroke:none"
         id="path312" />
      <path
         d="m 15070.6,8932.8 c 0,0 -41.9,877.9 -482.5,1367 -943.4,1047.2 63.4,1511 759.3,1612 695.9,101.1 3182.8,-647.6 2846.3,-1856.2 0,0 868.9,-316.3 29.5,-2260.3 -292.6,-677.8 -993.4,-1096.4 -993.4,-1096.4 0,0 -324.9,175.5 -749.3,217.1 -305.8,30 -785,255.5 -829,559.6 -75.9,524.1 -240.2,1229.5 -580.9,1457.2"
         style="fill:#662948;fill-opacity:1;fill-rule:nonzero;stroke:none"
         id="path314" />
      <path
         d="m 15539.8,8427.9 c -107.6,-313.3 -399.5,-497.1 -651.9,-410.4 -252.4,86.7 -369.8,410.9 -262.1,724.3 107.6,313.3 399.5,497 651.9,410.4 252.4,-86.7 369.8,-411 262.1,-724.3"
         style="fill:#f99370;fill-opacity:1;fill-rule:nonzero;stroke:none"
         id="path316" />
      <path
         d="m 14977.5,8930.4 c 10.5,2.6 259.5,64.9 377.7,-75.3 30.1,-35.7 47.6,-81 53.9,-134.6 0,-0.1 0,-0.3 0,-0.4 0.6,-5 1.8,-9.5 2.2,-14.7 0,-0.1 0,-0.2 0,-0.2 0,0 -0.1,-0.1 0,-0.1 7.2,-99.2 -23.6,-226.9 -92.7,-382.1 -7.8,-17.3 -26.8,-26.2 -44.7,-21.8 -2.1,0.5 -4.3,1.3 -6.5,2.2 -19.5,8.7 -28.3,31.7 -19.7,51.2 56.1,125.8 84.5,230.2 86.5,311.5 -226.4,-12.2 -368.2,-246.4 -369.7,-248.9 -8.8,-15.2 -26.5,-22.2 -42.8,-18.2 -3.4,0.9 -6.8,2.3 -10.1,4.2 -18.6,10.7 -24.8,34.3 -14.2,52.9 6.9,11.7 162.1,273.8 428.1,289.6 -6.5,22.9 -15.7,43.2 -29.3,59.4 -86.9,103 -297.5,50.8 -299.4,50.3 -21,-5.2 -41.8,7.4 -47.2,28 -5.2,20.6 7.3,41.6 27.9,47"
         style="fill:#c16256;fill-opacity:1;fill-rule:nonzero;stroke:none"
         id="path318" />
      <path
         d="m 15226.6,5913.7 c 0,0 412.9,-480.9 1204.3,-533.8 791.3,-52.9 1353.2,489.4 1353.2,489.4 0,0 -282.3,115.4 -554.3,67.4 0,0 -310.1,-160.3 -730.5,-160.3 -420.4,0 -730.5,195 -730.5,195 0,0 -185,86.2 -542.2,-57.7"
         style="fill:#ce3932;fill-opacity:1;fill-rule:nonzero;stroke:none"
         id="path320" />
      <path
         d="M 22263.5,0 H 10598.3 c 67.2,238.801 149,471.5 244.4,697 899.5,2126.6 3005.1,3618.7 5459.3,3618.7 h 257.7 c 2714.5,0 5002.7,-1825.4 5703.8,-4315.7"
         style="fill:#1d3f70;fill-opacity:1;fill-rule:nonzero;stroke:none"
         id="path322" />
      <path
         d="M 21880.6,0 H 10981.1 c 964.9,1964 2985,3315.7 5320.9,3315.7 h 257.7 C 18895.6,3315.7 20915.8,1964 21880.6,0"
         style="fill:#163356;fill-opacity:1;fill-rule:nonzero;stroke:none"
         id="path324" />
    </g>
  </g>
</svg>
